<?xml version="1.0" encoding="iso-8859-1"?>
<!-- Uploaded to: SVG Repo, www.svgrepo.com, Generator: SVG Repo Mixer Tools -->
<svg fill="#000000" height="800px" width="800px" version="1.1" id="Layer_1" xmlns="http://www.w3.org/2000/svg" xmlns:xlink="http://www.w3.org/1999/xlink" 
	 viewBox="0 0 512 512" xml:space="preserve">
<g>
	<g>
		<g>
			<path d="M273.068,110.835v-8.444c0-4.713-3.82-8.533-8.533-8.533s-8.533,3.82-8.533,8.533v8.46
				c-9.376,1.908-17.834,6.907-24.049,14.249c-11.054,13.073-8.549,32.926,5.033,43.476l19.016,14.795v46.516
				c-9.941-3.515-17.067-12.993-17.067-24.137c0-4.713-3.82-8.533-8.533-8.533s-8.533,3.82-8.533,8.533
				c0,20.64,14.659,37.858,34.133,41.811v7.492c0,4.713,3.82,8.533,8.533,8.533s8.533-3.82,8.533-8.533v-7.508
				c9.376-1.908,17.834-6.907,24.049-14.249c11.054-13.072,8.549-32.914-5.029-43.473l-19.02-14.798V128.51
				c9.941,3.515,17.067,12.993,17.067,24.137c0,4.713,3.82,8.533,8.533,8.533s8.533-3.82,8.533-8.533
				C307.201,132.006,292.542,114.789,273.068,110.835z M281.609,203.294c6.052,4.706,7.155,13.448,2.479,18.979
				c-2.965,3.502-6.767,6.112-11.02,7.614v-33.238L281.609,203.294z M247.459,155.102c-6.051-4.701-7.155-13.448-2.479-18.978
				c2.965-3.502,6.767-6.112,11.02-7.614v33.238L247.459,155.102z"/>
			<path d="M494.933,25.6h-61.927C422.21,10.131,404.291,0,384.001,0s-38.209,10.131-49.005,25.6H17.067
				c-4.713,0-8.533,3.821-8.533,8.533V332.8c0,4.713,3.82,8.533,8.533,8.533h204.801V409.6h-34.133
				c-7.388,0-11.285,8.75-6.343,14.242l76.8,85.333c3.39,3.766,9.296,3.766,12.686,0l76.8-85.333
				c4.942-5.491,1.045-14.242-6.343-14.242h-34.133v-68.267h187.732c4.713,0,8.533-3.821,8.533-8.533V34.133
				C503.467,29.421,499.646,25.6,494.933,25.6z M144.385,255.031c-0.037,0.206-0.071,0.413-0.11,0.618
				c-0.317,1.629-0.725,3.23-1.225,4.796c-0.04,0.125-0.085,0.247-0.126,0.371c-0.214,0.649-0.442,1.291-0.686,1.927
				c-0.072,0.188-0.147,0.376-0.222,0.563c-0.237,0.593-0.488,1.18-0.752,1.761c-0.076,0.167-0.149,0.335-0.226,0.5
				c-0.691,1.473-1.465,2.904-2.319,4.287c-0.085,0.137-0.174,0.27-0.26,0.406c-0.347,0.548-0.707,1.089-1.079,1.621
				c-0.118,0.169-0.237,0.336-0.358,0.503c-0.388,0.538-0.788,1.067-1.202,1.587c-0.087,0.11-0.172,0.222-0.26,0.331
				c-1.054,1.3-2.186,2.541-3.393,3.715c-0.042,0.041-0.086,0.082-0.129,0.123c-0.588,0.567-1.192,1.119-1.814,1.654
				c-0.025,0.021-0.049,0.043-0.074,0.064c-1.323,1.132-2.721,2.191-4.19,3.166c-0.037,0.025-0.069,0.052-0.106,0.077
				c-6.732,4.441-14.789,7.033-23.454,7.033c-23.558,0-42.667-19.109-42.667-42.667c0-8.665,2.592-16.723,7.033-23.454
				c0.025-0.036,0.052-0.068,0.076-0.105c0.978-1.472,2.039-2.873,3.174-4.199c0.017-0.02,0.034-0.039,0.051-0.059
				c0.539-0.627,1.096-1.236,1.667-1.828c0.039-0.04,0.077-0.081,0.116-0.121c1.172-1.205,2.412-2.335,3.709-3.388
				c0.12-0.097,0.243-0.19,0.364-0.286c0.505-0.401,1.018-0.789,1.54-1.166c0.182-0.131,0.365-0.262,0.549-0.39
				c0.508-0.355,1.024-0.697,1.547-1.029c0.159-0.101,0.316-0.207,0.477-0.306c0.689-0.425,1.387-0.834,2.099-1.219
				c0.027-0.014,0.054-0.027,0.081-0.042c0.675-0.363,1.362-0.705,2.056-1.031c0.194-0.091,0.391-0.177,0.586-0.265
				c0.548-0.248,1.102-0.485,1.661-0.709c0.213-0.085,0.425-0.17,0.64-0.252c0.602-0.231,1.211-0.446,1.825-0.65
				c0.154-0.051,0.306-0.107,0.461-0.156c0.791-0.252,1.589-0.484,2.397-0.69c0.011-0.003,0.022-0.005,0.033-0.008
				c0.769-0.195,1.546-0.364,2.329-0.517c0.218-0.042,0.439-0.078,0.658-0.118c0.587-0.105,1.177-0.198,1.771-0.279
				c0.261-0.035,0.521-0.069,0.783-0.1c0.585-0.068,1.174-0.122,1.765-0.166c0.244-0.018,0.487-0.042,0.733-0.056
				c0.825-0.048,1.653-0.078,2.487-0.078c23.558,0,42.667,19.109,42.667,42.667c0,0.834-0.03,1.663-0.078,2.489
				c-0.014,0.242-0.037,0.483-0.055,0.724c-0.045,0.596-0.099,1.19-0.168,1.78c-0.03,0.255-0.063,0.509-0.097,0.763
				C144.588,253.829,144.492,254.432,144.385,255.031z M151.631,281.284c0.232-0.338,0.459-0.679,0.685-1.022
				c0.251-0.381,0.496-0.765,0.738-1.152c0.221-0.353,0.442-0.705,0.655-1.062c0.246-0.412,0.481-0.829,0.717-1.247
				c0.334-0.591,0.658-1.188,0.972-1.792c0.219-0.421,0.44-0.841,0.649-1.268c0.203-0.414,0.395-0.833,0.589-1.252
				c0.165-0.357,0.328-0.715,0.487-1.076c0.191-0.435,0.377-0.871,0.558-1.311c0.146-0.357,0.285-0.717,0.425-1.077
				c0.173-0.445,0.349-0.889,0.511-1.34c0.257-0.713,0.5-1.431,0.729-2.155c0.14-0.44,0.265-0.886,0.395-1.331
				c0.116-0.397,0.232-0.794,0.339-1.195c0.118-0.44,0.23-0.881,0.338-1.325c0.107-0.435,0.206-0.873,0.303-1.311
				c0.091-0.413,0.184-0.824,0.267-1.24c0.148-0.746,0.282-1.495,0.402-2.249c0.052-0.33,0.096-0.663,0.143-0.994
				c0.09-0.632,0.172-1.266,0.242-1.903c0.036-0.333,0.066-0.667,0.097-1.001c0.057-0.62,0.104-1.242,0.142-1.866
				c0.018-0.296,0.038-0.592,0.052-0.889c0.042-0.916,0.07-1.834,0.07-2.758c0-32.984-26.75-59.733-59.733-59.733
				c-0.924,0-1.843,0.028-2.759,0.07c-0.296,0.013-0.59,0.034-0.884,0.051c-0.629,0.038-1.255,0.085-1.88,0.143
				c-0.328,0.03-0.657,0.06-0.984,0.095c-0.656,0.071-1.309,0.156-1.959,0.249c-0.263,0.037-0.528,0.068-0.791,0.109
				c-0.813,0.127-1.621,0.273-2.425,0.433c-0.393,0.078-0.782,0.167-1.172,0.252c-0.466,0.103-0.931,0.208-1.394,0.322
				c-0.421,0.103-0.841,0.209-1.258,0.321c-0.44,0.118-0.876,0.245-1.313,0.373c-0.407,0.119-0.815,0.233-1.218,0.361
				c-0.744,0.235-1.481,0.485-2.213,0.749c-0.406,0.146-0.805,0.305-1.207,0.46c-0.41,0.158-0.82,0.317-1.227,0.484
				c-0.406,0.167-0.809,0.339-1.21,0.514c-0.407,0.178-0.811,0.362-1.213,0.548c-0.38,0.176-0.76,0.35-1.135,0.534
				c-0.536,0.262-1.064,0.537-1.592,0.815c-0.45,0.238-0.897,0.482-1.34,0.731c-0.483,0.271-0.966,0.544-1.441,0.829
				c-0.329,0.197-0.652,0.4-0.977,0.603c-0.419,0.261-0.834,0.527-1.246,0.799c-0.319,0.211-0.638,0.422-0.953,0.639
				c-0.114,0.078-0.231,0.151-0.344,0.23v-70.609c27.232-2.072,48.967-23.808,51.038-51.038h207.45
				c5.268,17.689,18.508,31.935,35.555,38.586c0.123,0.048,0.244,0.098,0.367,0.145c0.602,0.23,1.209,0.449,1.82,0.66
				c0.223,0.077,0.447,0.152,0.671,0.227c0.575,0.191,1.152,0.377,1.734,0.551c0.264,0.079,0.531,0.151,0.796,0.226
				c0.569,0.161,1.138,0.324,1.714,0.469c0.035,0.009,0.071,0.016,0.107,0.025c1.156,0.288,2.328,0.535,3.51,0.755
				c0.478,0.089,0.956,0.179,1.438,0.257c0.408,0.065,0.818,0.122,1.228,0.179c0.525,0.073,1.051,0.141,1.579,0.201
				c0.381,0.043,0.762,0.083,1.145,0.119c0.602,0.056,1.207,0.1,1.814,0.138c0.319,0.02,0.636,0.045,0.957,0.059
				c0.931,0.043,1.866,0.071,2.807,0.071c0.001,0,0.003,0,0.004,0c0,0,0,0,0,0c0,0,0,0,0,0c1.109,0,2.209-0.036,3.303-0.095
				c0.299-0.016,0.595-0.047,0.894-0.068c0.81-0.056,1.617-0.121,2.418-0.21c0.309-0.034,0.616-0.078,0.924-0.117
				c0.807-0.102,1.61-0.216,2.406-0.35c0.265-0.045,0.529-0.093,0.793-0.142c0.874-0.159,1.74-0.336,2.6-0.532
				c0.175-0.04,0.35-0.079,0.525-0.121c1.026-0.244,2.042-0.512,3.047-0.809c0.008-0.002,0.016-0.004,0.024-0.007
				c3.287-0.97,6.456-2.212,9.481-3.706c9.086,8.385,20.76,13.565,33.32,14.526v102.724c-27.232,2.072-48.967,23.808-51.038,51.038
				H151.419C151.492,281.496,151.559,281.388,151.631,281.284z M384.001,17.067c15.61,0,29.26,8.394,36.698,20.91
				c0.073,0.143,0.13,0.289,0.212,0.431c2.786,4.815,4.604,10.072,5.357,15.554c0.018,0.133,0.034,0.266,0.051,0.399
				c0.092,0.722,0.162,1.449,0.217,2.178c0.014,0.193,0.032,0.386,0.044,0.58c0.053,0.868,0.087,1.739,0.087,2.615
				c0,4.532-0.713,8.896-2.022,12.993c-2.957,9.251-8.98,17.132-16.879,22.441c-0.16,0.091-0.321,0.179-0.476,0.281
				c-3.013,1.974-6.241,3.55-9.621,4.7c-0.003,0.001-0.006,0.002-0.009,0.003c-1.28,0.435-2.583,0.803-3.903,1.113
				c-0.238,0.056-0.475,0.113-0.714,0.165c-0.315,0.069-0.632,0.132-0.95,0.193c-0.342,0.066-0.686,0.127-1.032,0.184
				c-0.253,0.042-0.504,0.088-0.758,0.125c-0.587,0.087-1.178,0.163-1.772,0.225c-0.187,0.02-0.375,0.034-0.563,0.051
				c-0.477,0.044-0.956,0.081-1.437,0.109c-0.193,0.011-0.387,0.023-0.58,0.032c-0.647,0.029-1.296,0.049-1.95,0.049
				c-0.695,0-1.385-0.02-2.071-0.052c-0.259-0.013-0.514-0.035-0.772-0.052c-0.421-0.028-0.841-0.056-1.258-0.096
				c-0.325-0.031-0.647-0.072-0.97-0.11c-0.339-0.04-0.677-0.081-1.013-0.129c-0.365-0.052-0.728-0.112-1.09-0.174
				c-0.281-0.048-0.561-0.097-0.839-0.15c-0.402-0.077-0.802-0.159-1.199-0.247c-0.22-0.049-0.439-0.1-0.658-0.152
				c-0.444-0.106-0.887-0.215-1.326-0.335c-0.142-0.039-0.282-0.08-0.423-0.12c-0.507-0.144-1.012-0.292-1.512-0.454
				c-0.002-0.001-0.004-0.002-0.006-0.002c-14.812-4.808-26.198-17.537-28.878-33.476c-0.047-0.281-0.111-0.556-0.184-0.826
				c-0.304-2.054-0.466-4.154-0.466-6.292c0-0.034,0.003-0.067,0.003-0.101c0.002-0.829,0.032-1.654,0.082-2.475
				c0.014-0.23,0.035-0.458,0.052-0.687c0.053-0.686,0.119-1.371,0.205-2.051c0.021-0.166,0.041-0.332,0.063-0.497
				c0.757-5.468,2.571-10.712,5.35-15.515c0.078-0.135,0.132-0.275,0.202-0.411C354.727,25.47,368.382,17.067,384.001,17.067z
				 M298.668,426.667h23.506l-57.64,64.044l-57.64-64.044h23.506c4.713,0,8.533-3.82,8.533-8.533v-76.8h51.2v76.8
				C290.134,422.846,293.955,426.667,298.668,426.667z M486.4,324.267H298.668h-68.267H25.6v-281.6h301.156
				c-0.587,1.972-1.072,3.987-1.455,6.038c-0.043,0.23-0.083,0.461-0.124,0.692c-0.095,0.546-0.192,1.091-0.273,1.642
				c-0.113,0.763-0.209,1.529-0.292,2.298c-0.033,0.313-0.058,0.629-0.087,0.944c-0.058,0.632-0.107,1.265-0.145,1.9
				c-0.016,0.273-0.033,0.546-0.045,0.82c-0.042,0.908-0.07,1.818-0.07,2.732H110.721c-5.018,0-8.953,4.309-8.498,9.306
				c0.119,1.31,0.178,2.437,0.178,3.494c0,21.206-17.192,38.4-38.4,38.4c-1.001,0-2.076-0.058-3.545-0.183
				c-4.98-0.422-9.255,3.505-9.255,8.503v97.444c-5.414,8.988-8.533,19.515-8.533,30.77c0,32.984,26.75,59.733,59.733,59.733
				c11.255,0,21.782-3.119,30.77-8.533h268.11c5.018,0,8.953-4.309,8.498-9.306c-0.119-1.31-0.178-2.437-0.178-3.494
				c0-21.206,17.192-38.4,38.4-38.4c1.001,0,2.076,0.058,3.545,0.183c4.98,0.422,9.255-3.505,9.255-8.503V119.253
				c0-4.997-4.275-8.925-9.255-8.503c-1.469,0.125-2.544,0.183-3.545,0.183c-8.493,0-16.521-2.782-23.069-7.719
				c7.394-6.964,13.024-15.78,16.116-25.72c1.746-5.611,2.686-11.576,2.686-17.761c0-0.041-0.003-0.081-0.003-0.122
				c-0.002-0.854-0.027-1.704-0.065-2.552c-0.014-0.321-0.034-0.639-0.053-0.959c-0.035-0.572-0.079-1.142-0.13-1.711
				c-0.033-0.367-0.062-0.735-0.101-1.101c-0.065-0.598-0.144-1.194-0.227-1.788c-0.104-0.752-0.224-1.498-0.356-2.24
				c-0.029-0.162-0.057-0.325-0.087-0.487c-0.385-2.075-0.874-4.112-1.467-6.106H486.4V324.267z"/>
		</g>
	</g>
</g>
</svg>