<?xml version="1.0" encoding="UTF-8"?>
<svg xmlns="http://www.w3.org/2000/svg" xmlns:xlink="http://www.w3.org/1999/xlink" width="800px" height="800px" viewBox="0 0 800 800" version="1.1">
<g id="surface1">
<path style=" stroke:none;fill-rule:nonzero;fill:rgb(0%,0%,0%);fill-opacity:1;" d="M 386.058594 12.113281 C 382.605469 12.230469 375.613281 12.640625 370.515625 13.027344 C 319.816406 16.867188 270.855469 30.445312 225.371094 53.28125 C 191.863281 70.101562 160.457031 92.183594 132.960938 118.238281 C 125.578125 125.257812 113.941406 137.324219 108.777344 143.3125 C 107.109375 145.257812 104.503906 148.296875 102.972656 150.058594 C 98.332031 155.40625 88.410156 168.367188 82.71875 176.457031 C 76.546875 185.210938 68.664062 197.53125 64.503906 204.890625 C 62.949219 207.679688 60.800781 211.429688 59.769531 213.257812 C 56.664062 218.71875 49.371094 233.53125 45.484375 242.308594 C 35.863281 263.929688 27.175781 289.988281 22.285156 311.769531 C 21.460938 315.472656 20.527344 319.589844 20.230469 320.914062 C 19.039062 326.148438 16.410156 342.285156 15.3125 351.085938 C 11.359375 382.71875 11.359375 415.132812 15.292969 446.855469 C 17.074219 461.144531 19.589844 474.878906 23.519531 491.65625 C 25.898438 501.875 32.914062 524.433594 36.847656 534.628906 C 37.851562 537.210938 39.335938 541.050781 40.160156 543.199219 C 42.789062 550.035156 49.417969 564.640625 53.851562 573.371094 C 64.824219 595.039062 79.199219 617.921875 92.664062 635.085938 C 94.925781 637.964844 97.53125 641.324219 98.46875 642.515625 C 101.621094 646.539062 112.527344 659.0625 117.027344 663.769531 C 127.335938 674.628906 135.976562 682.925781 145.714844 691.335938 C 153.667969 698.21875 153.804688 698.355469 162.878906 705.394531 C 186.558594 723.769531 214.695312 740.570312 242.398438 752.777344 C 253.28125 757.578125 251.335938 756.777344 261.144531 760.527344 C 269.460938 763.726562 284.777344 768.914062 290.515625 770.492188 C 292.34375 770.996094 296.457031 772.113281 299.65625 773.003906 C 314.308594 777.027344 334.605469 780.984375 351.542969 783.109375 C 360.984375 784.273438 375.269531 785.507812 382.285156 785.738281 C 400.320312 786.355469 411.839844 786.171875 427.429688 785.027344 C 453.875 783.085938 477.988281 778.902344 503.199219 771.886719 C 512.25 769.371094 526.035156 764.960938 532.230469 762.605469 C 549.304688 756.113281 559.199219 751.839844 572.800781 745.027344 C 581.851562 740.503906 594.742188 733.394531 601.1875 729.347656 C 613.28125 721.78125 614.125 721.210938 623.769531 714.398438 C 638.21875 704.183594 653.667969 691.382812 667.542969 678.125 C 671.703125 674.171875 675.292969 670.675781 675.542969 670.355469 C 675.792969 670.035156 677.898438 667.769531 680.230469 665.347656 C 686.8125 658.46875 686.238281 659.109375 695.109375 648.800781 C 703.929688 638.558594 717.257812 620.503906 724.730469 608.707031 C 726.695312 605.621094 729.027344 601.941406 729.898438 600.570312 C 733.210938 595.359375 741.347656 580.617188 745.417969 572.457031 C 753.804688 555.679688 761.121094 537.964844 766.925781 520.34375 C 770.558594 509.347656 774.46875 495.429688 776.570312 485.941406 C 777.394531 482.238281 778.332031 478.125 778.628906 476.800781 C 778.925781 475.472656 779.589844 471.929688 780.113281 468.914062 C 780.640625 465.898438 781.304688 462.035156 781.601562 460.34375 C 782.445312 455.589844 784.640625 437.941406 785.027344 432.570312 C 785.210938 429.921875 785.53125 425.804688 785.714844 423.429688 C 786.515625 413.050781 786.675781 392.730469 786.058594 380.457031 C 785.601562 371.589844 784.617188 360.160156 783.519531 351.429688 C 781.738281 336.960938 779.519531 324.847656 775.429688 306.949219 C 774.148438 301.347656 769.601562 285.691406 766.925781 277.601562 C 761.003906 259.65625 753.121094 240.730469 744.753906 224.230469 C 742.285156 219.382812 739.953125 214.855469 739.542969 214.171875 C 739.132812 213.484375 737.1875 210.035156 735.199219 206.515625 C 730.238281 197.738281 722.378906 185.394531 715.910156 176.230469 C 671.703125 113.484375 609.921875 65.28125 538.398438 37.78125 C 524.433594 32.386719 513.898438 29.003906 495.542969 24 C 489.988281 22.492188 474.011719 19.109375 465.371094 17.601562 C 450.238281 14.996094 431.726562 12.960938 416.457031 12.25 C 411.132812 12 392.367188 11.929688 386.058594 12.113281 Z M 617.460938 196.617188 C 603.929688 210.628906 565.875 249.964844 557.714844 258.398438 C 551.863281 264.433594 539.589844 277.144531 530.398438 286.628906 C 521.234375 296.113281 508.730469 309.027344 502.628906 315.335938 C 459.0625 360.320312 441.484375 378.558594 441.484375 378.742188 C 441.484375 378.855469 455.382812 395.792969 472.34375 416.386719 C 489.324219 436.960938 508.296875 459.976562 514.515625 467.519531 C 520.753906 475.085938 529.234375 485.371094 533.394531 490.398438 C 558.421875 520.730469 563.632812 527.0625 573.257812 538.742188 C 579.109375 545.851562 591.679688 561.074219 601.164062 572.59375 C 610.675781 584.089844 618.515625 593.621094 618.605469 593.78125 C 618.742188 593.988281 605.921875 594.058594 561.394531 594.058594 L 504.023438 594.058594 L 498.125 586.902344 C 485.828125 572 443.566406 520.753906 438.515625 514.628906 C 435.613281 511.109375 428.089844 502.011719 421.828125 494.398438 C 415.566406 486.789062 403.429688 472.089844 394.902344 461.738281 L 379.359375 442.925781 L 377.371094 444.9375 C 376.273438 446.058594 366.605469 456.070312 355.863281 467.199219 C 329.347656 494.71875 318.675781 505.761719 314.742188 509.828125 C 312.914062 511.703125 308.570312 516.183594 305.121094 519.769531 C 296.113281 529.121094 281.417969 544.367188 270.171875 556 C 264.824219 561.53125 254.855469 571.886719 248 578.972656 C 241.144531 586.078125 234.628906 592.824219 233.484375 593.988281 L 231.429688 596.089844 L 204.914062 596.25 L 178.398438 596.386719 L 179.910156 594.835938 C 181.554688 593.097656 186.171875 588.320312 239.542969 533.257812 C 259.589844 512.570312 280.664062 490.8125 286.378906 484.914062 C 292.089844 478.996094 298.539062 472.367188 300.6875 470.171875 C 302.855469 467.976562 311.0625 459.472656 318.972656 451.3125 C 326.878906 443.132812 334.789062 434.972656 336.570312 433.144531 C 338.332031 431.3125 341.578125 427.976562 343.769531 425.714844 C 352.136719 417.097656 354.855469 414.398438 355.132812 414.398438 C 355.632812 414.398438 355.453125 413.898438 354.558594 412.824219 C 353.714844 411.816406 339.292969 394.355469 315.792969 365.828125 C 309.875 358.652344 303.132812 350.492188 300.800781 347.65625 C 298.46875 344.824219 292.664062 337.78125 287.886719 332 C 283.132812 326.21875 275.613281 317.121094 271.199219 311.769531 C 266.789062 306.421875 258.558594 296.457031 252.914062 289.601562 C 241.644531 275.929688 225.875 256.800781 218.515625 247.886719 C 215.910156 244.730469 206.972656 233.898438 198.628906 223.769531 C 190.285156 213.644531 182.652344 204.386719 181.667969 203.199219 C 180.6875 202.011719 179.886719 200.960938 179.886719 200.867188 C 179.886719 200.777344 205.667969 200.6875 237.210938 200.707031 L 294.515625 200.707031 L 299.792969 207.152344 C 304.527344 212.914062 310.855469 220.570312 332.433594 246.742188 C 335.953125 251.015625 343.929688 260.6875 350.148438 268.230469 C 356.367188 275.769531 365.578125 286.925781 370.605469 293.027344 C 375.632812 299.132812 380.730469 305.304688 381.941406 306.765625 C 383.132812 308.230469 387.632812 313.667969 391.929688 318.878906 C 396.230469 324.089844 403.632812 333.074219 408.386719 338.835938 C 413.144531 344.59375 417.144531 349.28125 417.257812 349.234375 C 417.394531 349.1875 423.75 342.675781 431.429688 334.742188 C 473.738281 290.996094 493.691406 270.355469 508.664062 254.855469 C 517.828125 245.371094 526.878906 236 528.777344 234.058594 C 530.695312 232.113281 535.132812 227.519531 538.652344 223.886719 C 551.152344 210.925781 558.789062 203.039062 562.628906 199.085938 L 566.515625 195.085938 L 576.6875 194.972656 C 582.285156 194.902344 594.148438 194.835938 603.0625 194.789062 L 619.292969 194.742188 Z M 617.460938 196.617188 "/>
<path style=" stroke:none;fill-rule:nonzero;fill:rgb(0%,0%,0%);fill-opacity:1;" d="M 269.828125 237.304688 C 261.78125 237.394531 252.570312 237.554688 249.371094 237.667969 L 243.519531 237.828125 L 377.027344 398.011719 L 510.515625 558.195312 L 533.578125 558.171875 C 546.261719 558.171875 556.664062 558.148438 556.6875 558.101562 C 556.707031 558.078125 550.902344 551.0625 543.792969 542.492188 C 536.6875 533.921875 524.183594 518.878906 516 509.027344 C 507.839844 499.175781 497.851562 487.152344 493.804688 482.308594 C 487.175781 474.308594 449.097656 428.457031 425.484375 400 C 415.792969 388.34375 397.164062 365.898438 389.144531 356.230469 C 376.503906 341.027344 363.679688 325.554688 343.3125 301.027344 C 340.730469 297.921875 334.21875 290.058594 328.800781 283.542969 C 316.367188 268.570312 309.507812 260.296875 298.742188 247.335938 L 290.195312 237.027344 L 287.3125 237.074219 C 285.738281 237.097656 277.875 237.1875 269.828125 237.304688 Z M 269.828125 237.304688 "/>
</g>
</svg>
